<svg width="554" height="146" viewBox="0 0 554 146" fill="none" xmlns="http://www.w3.org/2000/svg">
<path d="M41.8298 0.872158L3.47428 21.9126C1.32588 23.0911 0 25.2844 0 27.6599V119.269C0 121.644 1.32588 123.838 3.47428 125.016L40.0924 145.104C42.3909 146.364 45.2507 144.771 45.2507 142.23V98.2874L85.2632 76.3382C87.5789 75.0675 87.5789 71.8615 85.2632 70.5907L45.2507 48.6416L85.2632 26.6921C87.5789 25.4215 87.5789 22.2154 85.2632 20.9448L48.6717 0.872158C46.552 -0.290719 43.9494 -0.290719 41.8298 0.872158Z" fill="#242424"/>
<path d="M143.733 71H134.593L151.235 23.7273H161.807L178.472 71H169.332L156.706 33.4219H156.336L143.733 71ZM144.033 52.4648H168.962V59.3434H144.033V52.4648ZM183.868 71V65.6911L202.149 42.7702V42.4702H184.468V35.5455H212.375V41.2468L194.97 63.7752V64.0753H212.975V71H183.868ZM243.426 56.0888V35.5455H251.782V71H243.68V64.6985H243.311C242.511 66.6836 241.195 68.3071 239.364 69.5689C237.548 70.8307 235.309 71.4616 232.647 71.4616C230.323 71.4616 228.269 70.9461 226.484 69.9151C224.714 68.8687 223.329 67.353 222.329 65.3679C221.329 63.3674 220.828 60.9515 220.828 58.12V35.5455H229.184V56.8274C229.184 59.0741 229.8 60.8591 231.031 62.1825C232.262 63.5059 233.878 64.1676 235.878 64.1676C237.109 64.1676 238.302 63.8675 239.456 63.2674C240.61 62.6673 241.556 61.7747 242.295 60.5898C243.049 59.3896 243.426 57.8892 243.426 56.0888ZM260.374 71V35.5455H268.476V41.4545H268.846C269.492 39.4079 270.6 37.8306 272.169 36.7227C273.754 35.5993 275.563 35.0376 277.594 35.0376C278.055 35.0376 278.571 35.0607 279.14 35.1069C279.725 35.1377 280.21 35.1915 280.595 35.2685V42.9549C280.241 42.8318 279.679 42.7241 278.91 42.6317C278.156 42.524 277.425 42.4702 276.717 42.4702C275.193 42.4702 273.824 42.801 272.608 43.4627C271.408 44.109 270.461 45.0092 269.769 46.1634C269.076 47.3175 268.73 48.6486 268.73 50.1566V71H260.374ZM300.382 71.6925C296.827 71.6925 293.757 70.9538 291.172 69.4766C288.602 67.9839 286.625 65.8757 285.24 63.152C283.855 60.4129 283.162 57.189 283.162 53.4805C283.162 49.8335 283.855 46.6327 285.24 43.8782C286.64 41.1083 288.595 38.954 291.103 37.4151C293.611 35.8609 296.558 35.0838 299.943 35.0838C302.128 35.0838 304.191 35.4377 306.129 36.1456C308.084 36.8381 309.807 37.9152 311.3 39.3771C312.808 40.839 313.993 42.701 314.855 44.9631C315.716 47.2098 316.147 49.8873 316.147 52.9957V55.5579H287.086V49.9258H308.138C308.122 48.3254 307.776 46.902 307.099 45.6555C306.422 44.3937 305.475 43.4012 304.26 42.6779C303.059 41.9547 301.659 41.593 300.059 41.593C298.351 41.593 296.85 42.0085 295.558 42.8395C294.265 43.6551 293.257 44.7322 292.534 46.071C291.826 47.3944 291.464 48.8486 291.449 50.4336V55.3501C291.449 57.4122 291.826 59.1818 292.58 60.6591C293.334 62.121 294.388 63.2443 295.742 64.0291C297.097 64.7985 298.682 65.1832 300.497 65.1832C301.713 65.1832 302.813 65.014 303.798 64.6754C304.783 64.3215 305.637 63.806 306.36 63.1289C307.084 62.4518 307.63 61.6132 307.999 60.6129L315.801 61.4901C315.309 63.5521 314.37 65.3525 312.985 66.8913C311.615 68.4148 309.861 69.5997 307.722 70.446C305.583 71.277 303.136 71.6925 300.382 71.6925ZM337.631 30.9059V23.7273H375.348V30.9059H360.737V71H352.242V30.9059H337.631ZM390.605 50.2259V71H382.249V23.7273H390.421V41.57H390.836C391.667 39.5695 392.952 37.9922 394.691 36.8381C396.445 35.6686 398.676 35.0838 401.385 35.0838C403.847 35.0838 405.993 35.5993 407.825 36.6303C409.656 37.6613 411.072 39.1694 412.072 41.1545C413.087 43.1396 413.595 45.5632 413.595 48.4254V71H405.239V49.718C405.239 47.3329 404.624 45.4786 403.393 44.1552C402.177 42.8164 400.469 42.147 398.269 42.147C396.791 42.147 395.468 42.4702 394.298 43.1165C393.144 43.7474 392.236 44.663 391.575 45.8633C390.928 47.0636 390.605 48.5178 390.605 50.2259ZM437.809 71.6925C434.254 71.6925 431.184 70.9538 428.599 69.4766C426.029 67.9839 424.052 65.8757 422.667 63.152C421.282 60.4129 420.589 57.189 420.589 53.4805C420.589 49.8335 421.282 46.6327 422.667 43.8782C424.067 41.1083 426.021 38.954 428.53 37.4151C431.038 35.8609 433.985 35.0838 437.37 35.0838C439.555 35.0838 441.617 35.4377 443.556 36.1456C445.511 36.8381 447.234 37.9152 448.727 39.3771C450.235 40.839 451.42 42.701 452.281 44.9631C453.143 47.2098 453.574 49.8873 453.574 52.9957V55.5579H424.513V49.9258H445.564C445.549 48.3254 445.203 46.902 444.526 45.6555C443.849 44.3937 442.902 43.4012 441.687 42.6779C440.486 41.9547 439.086 41.593 437.486 41.593C435.777 41.593 434.277 42.0085 432.984 42.8395C431.692 43.6551 430.684 44.7322 429.961 46.071C429.253 47.3944 428.891 48.8486 428.876 50.4336V55.3501C428.876 57.4122 429.253 59.1818 430.007 60.6591C430.761 62.121 431.815 63.2443 433.169 64.0291C434.523 64.7985 436.108 65.1832 437.924 65.1832C439.14 65.1832 440.24 65.014 441.225 64.6754C442.21 64.3215 443.064 63.806 443.787 63.1289C444.51 62.4518 445.057 61.6132 445.426 60.6129L453.228 61.4901C452.735 63.5521 451.797 65.3525 450.412 66.8913C449.042 68.4148 447.288 69.5997 445.149 70.446C443.01 71.277 440.563 71.6925 437.809 71.6925ZM460.643 71V35.5455H468.629V41.57H469.045C469.784 39.5387 471.007 37.9537 472.715 36.815C474.423 35.6609 476.462 35.0838 478.832 35.0838C481.232 35.0838 483.256 35.6686 484.903 36.8381C486.564 37.9922 487.734 39.5695 488.411 41.57H488.78C489.565 39.6003 490.889 38.0307 492.751 36.8612C494.628 35.6763 496.852 35.0838 499.421 35.0838C502.684 35.0838 505.346 36.1148 507.408 38.1768C509.47 40.2389 510.501 43.2473 510.501 47.2021V71H502.122V48.4947C502.122 46.2942 501.537 44.6861 500.368 43.6705C499.198 42.6394 497.767 42.1239 496.074 42.1239C494.059 42.1239 492.481 42.7549 491.343 44.0167C490.219 45.2631 489.657 46.8866 489.657 48.8871V71H481.463V48.1484C481.463 46.3172 480.909 44.8553 479.801 43.7628C478.709 42.6702 477.278 42.1239 475.508 42.1239C474.308 42.1239 473.215 42.4317 472.23 43.0472C471.245 43.6474 470.461 44.5014 469.876 45.6094C469.291 46.7019 468.999 47.9792 468.999 49.441V71H460.643ZM534.674 71.6925C531.119 71.6925 528.049 70.9538 525.464 69.4766C522.894 67.9839 520.917 65.8757 519.532 63.152C518.147 60.4129 517.454 57.189 517.454 53.4805C517.454 49.8335 518.147 46.6327 519.532 43.8782C520.932 41.1083 522.887 38.954 525.395 37.4151C527.903 35.8609 530.85 35.0838 534.235 35.0838C536.42 35.0838 538.483 35.4377 540.421 36.1456C542.376 36.8381 544.099 37.9152 545.592 39.3771C547.1 40.839 548.285 42.701 549.147 44.9631C550.008 47.2098 550.439 49.8873 550.439 52.9957V55.5579H521.378V49.9258H542.43C542.414 48.3254 542.068 46.902 541.391 45.6555C540.714 44.3937 539.767 43.4012 538.552 42.6779C537.351 41.9547 535.951 41.593 534.351 41.593C532.643 41.593 531.142 42.0085 529.85 42.8395C528.557 43.6551 527.549 44.7322 526.826 46.071C526.118 47.3944 525.756 48.8486 525.741 50.4336V55.3501C525.741 57.4122 526.118 59.1818 526.872 60.6591C527.626 62.121 528.68 63.2443 530.034 64.0291C531.389 64.7985 532.974 65.1832 534.789 65.1832C536.005 65.1832 537.105 65.014 538.09 64.6754C539.075 64.3215 539.929 63.806 540.652 63.1289C541.376 62.4518 541.922 61.6132 542.291 60.6129L550.093 61.4901C549.601 63.5521 548.662 65.3525 547.277 66.8913C545.907 68.4148 544.153 69.5997 542.014 70.446C539.875 71.277 537.428 71.6925 534.674 71.6925Z" fill="#2B88D8"/>
<path d="M161.667 93.3651H146.001V103.768H160.398V111.512H146.001V127.974H136V85.592H161.667V93.3651ZM177.195 127.974H167.411V83.1682H177.195V127.974ZM214.923 127.974H205.17V123.363H205.015C202.6 126.93 199.369 128.713 195.324 128.713C187.976 128.713 184.302 124.467 184.302 115.974V97.7095H194.055V115.147C194.055 119.423 195.83 121.561 199.38 121.561C201.135 121.561 202.538 120.979 203.591 119.817C204.644 118.634 205.17 117.039 205.17 115.029V97.7095H214.923V127.974ZM251.04 115.502H230.358C230.688 119.896 233.588 122.092 239.058 122.092C242.546 122.092 245.612 121.304 248.253 119.728V126.467C245.323 127.964 241.514 128.713 236.829 128.713C231.71 128.713 227.736 127.363 224.908 124.664C222.081 121.945 220.667 118.161 220.667 113.315C220.667 108.29 222.194 104.31 225.249 101.375C228.304 98.4385 232.061 96.9707 236.519 96.9707C241.143 96.9707 244.714 98.2808 247.232 100.902C249.771 103.522 251.04 107.079 251.04 111.571V115.502ZM241.968 109.768C241.968 105.433 240.131 103.266 236.457 103.266C234.888 103.266 233.526 103.886 232.37 105.128C231.235 106.369 230.544 107.916 230.296 109.768H241.968ZM286.848 127.974H277.095V111.157C277.095 106.468 275.34 104.123 271.831 104.123C270.139 104.123 268.746 104.744 267.652 105.985C266.558 107.226 266.011 108.803 266.011 110.714V127.974H256.227V97.7095H266.011V102.497H266.134C268.467 98.813 271.862 96.9707 276.321 96.9707C283.339 96.9707 286.848 101.128 286.848 109.443V127.974ZM313.151 127.619C311.706 128.348 309.528 128.713 306.617 128.713C299.723 128.713 296.276 125.294 296.276 118.457V104.596H291.137V97.7095H296.276V91.1777L306.029 88.5178V97.7095H313.151V104.596H306.029V116.832C306.029 119.984 307.34 121.561 309.962 121.561C310.994 121.561 312.056 121.275 313.151 120.703V127.619ZM344.113 120.23H362.938V127.974H333.4V124.782C333.4 122.614 333.782 120.674 334.546 118.96C335.31 117.226 336.27 115.679 337.426 114.319C338.581 112.94 339.84 111.728 341.203 110.684C342.586 109.62 343.897 108.664 345.135 107.817C346.435 106.931 347.571 106.083 348.541 105.276C349.532 104.468 350.357 103.67 351.018 102.882C351.699 102.074 352.205 101.266 352.535 100.458C352.865 99.6305 353.03 98.7536 353.03 97.8275C353.03 96.0151 352.493 94.6456 351.42 93.7195C350.347 92.7934 348.706 92.3304 346.497 92.3304C342.679 92.3304 339.025 93.7785 335.537 96.6752V88.4588C339.397 86.0747 343.752 84.8827 348.603 84.8827C350.853 84.8827 352.865 85.1683 354.64 85.7396C356.436 86.2915 357.953 87.0893 359.192 88.1338C360.43 89.178 361.369 90.4487 362.009 91.9464C362.67 93.4241 363 95.0792 363 96.9117C363 98.8622 362.68 100.596 362.04 102.113C361.421 103.63 360.585 105.01 359.532 106.251C358.5 107.492 357.303 108.635 355.941 109.679C354.578 110.704 353.164 111.699 351.699 112.664C350.708 113.334 349.748 114.004 348.82 114.674C347.911 115.324 347.106 115.974 346.405 116.625C345.703 117.255 345.145 117.876 344.733 118.487C344.32 119.097 344.113 119.679 344.113 120.23Z" fill="#1B1A19"/>
</svg>
