<?xml version="1.0" encoding="utf-8"?>
<!-- Generator: Adobe Illustrator 21.0.2, SVG Export Plug-In . SVG Version: 6.00 Build 0)  -->
<svg version="1.1" id="Layer_1" xmlns="http://www.w3.org/2000/svg" xmlns:xlink="http://www.w3.org/1999/xlink" x="0px" y="0px"
	 viewBox="0 0 864 864" style="enable-background:new 0 0 864 864;" xml:space="preserve">
<style type="text/css">
	.st0{fill:#163957;}
</style>
<g>
	<path class="st0" d="M602.3,318.8c-22.1-50.6-97-86.6-184-86.6c-87,0-161.9,36-184,86.6c-2.8,6.4-4.3,13.2-4.4,20.2l-1.6,75.1
		c35.2-43.2,107.8-72.1,190-72.1c82.2,0,154.8,28.9,190,72.1l-1.6-75.1C606.6,332.1,605.1,325.2,602.3,318.8z"/>
	<path class="st0" d="M803.4,490.6c-0.1-0.3-0.2-0.7-0.3-1c-4-13-8.2-25.8-15.4-37.5c-4.1-6.6-10.6-13.9-17.8-18.4
		c0.6-2.7,0.5-5.5-0.2-8.2c-0.1-0.6-0.3-1.1-0.5-1.6c-0.3-1-0.8-2.1-1.4-3c-1-1.9-2.4-3.4-4.2-4.6c-0.2-0.2-0.4-0.3-0.6-0.5
		c-1.2-1-2.5-1.8-4-2.3c-3.3-18.1-11.9-35.2-20.6-51.7c-6.6-12.5-13.2-24.9-17.5-38.4c-2.3-7-4-14.3-4.5-21.6
		c-0.5-7.1,0.7-14.2,0.3-21.3c0,0,0-0.1,0-0.1c0,0,0-0.1,0-0.1c0-3.3-1.9-6.3-4.9-7.7L427.6,140.9c-5.9-2.7-12.7-2.7-18.6,0
		L124.9,272.5c-3,1.4-4.9,4.4-4.9,7.7s1.9,6.3,4.9,7.7l92.7,42.9c0.6-6.5,2.2-12.8,4.9-18.7c24-55,104.5-93.4,195.8-93.4
		c91.3,0,171.8,38.4,195.8,93.4c2.6,5.9,4.2,12.3,4.8,18.7l79.1-36.6c-0.3,7.9,0.9,16.1,2.6,23.3c3.2,13.8,9.1,27.1,15.5,39.7
		c9.7,19.1,20.8,37.7,26.3,58.2c-0.8,0.5-1.6,1.2-2.3,1.8c-0.2,0.2-0.5,0.4-0.7,0.6c-0.1,0-0.1,0.1-0.2,0.2c-1.1,1-2.1,2.3-2.8,3.7
		c-0.3,0.7-0.6,1.4-0.9,2.2c-0.4,0.7-0.7,1.4-0.9,2.2c-0.1,0.8-0.2,1.6-0.3,2.4c-0.2,0.8-0.3,1.6-0.3,2.4c-0.1,1.6,0.2,3.2,0.7,4.8
		c0.4,1.5,1,3,1.8,4.3c0.5,0.6,1,1.2,1.4,1.9c0.4,0.7,0.9,1.3,1.5,1.8c0.9,0.7,1.7,1.3,2.6,2c-1.7,5.1-2.8,10.4-3.4,15.8
		c-0.8,7.3-0.8,14.7-0.2,22c0.6,7.3,1.8,14.4,3,21.6c0.9-0.1,1.9-0.3,2.8-0.6c-0.4-2.9-0.6-5.9-0.8-8.9c0-0.6-0.1-1.2,0.1-1.8
		c1.2,3.3,2.3,6.7,3.7,9.9c0.1,0.2,0.2,0.4,0.4,0.5c0.1,0.1,0.3,0.1,0.4,0.1c1.9,0.1,3.8,0,5.6-0.4c0.9-0.2,1.9-0.5,2.7-0.9
		c0.4-0.2,0.9-0.4,1.3-0.6c0.3-0.1,0.7-0.2,1-0.5c0.1-0.2,0.2-0.4,0.2-0.6c0.4-2.1,0.5-4.3,0.5-6.4c0-2.9-0.3-5.7-0.6-8.6
		c1.2,5.6,2.8,11.2,4.6,16.6c1-0.2,2.1-0.3,3.1-0.5c0.3,0,0.6-0.1,0.8-0.3c0.2-0.2,0.2-0.5,0.2-0.8c0.1-2.3,0-4.7-0.4-7
		c1.1,2.3,2,4.7,3,7c0,0.1,0.1,0.2,0.2,0.3c0.1,0,0.2,0,0.3,0c1.1-0.1,2.2-0.3,3.2-0.7c0.5-3.5,0.4-7.1-0.1-10.6
		c0.1,0.8,0.6,1.6,0.8,2.3c0.3,0.8,0.5,1.7,0.7,2.5c0.4,1.6,0.7,3.3,1.1,5c0,0,0,0.1,0.1,0.1c0,0,0.1,0,0.1,0c1.1-0.1,2.3,0,3.3-0.5
		c0-0.7,0-1.5-0.1-2.2c0-0.6,0.2-1.4,0-1.9c0.3,1.1,0.6,2.2,1,3.2c0,0.1,0,0.1,0.1,0.2c0.1,0.1,0.2,0.1,0.3,0c1-0.1,2-0.3,3-0.6
		c0.1,0,0.2-0.1,0.2-0.1c0-0.1,0.1-0.1,0.1-0.2c0.3-2.9,0.2-5.7-0.1-8.6c-0.2-1.4-0.4-2.9-0.6-4.3c-0.1-0.7-0.3-1.4-0.4-2.2
		c-0.1-0.6-0.4-1.4-0.4-2c2.3,5.5,4.6,11,6.7,16.6c4.9-0.8,10.1-1.7,13.6-5.2c0.3-0.3,0.5-0.5,0.6-0.9
		C803.6,491.3,803.5,490.9,803.4,490.6z"/>
</g>
</svg>
