<svg width="318" height="90" viewBox="0 0 318 90" fill="none" xmlns="http://www.w3.org/2000/svg">
<path d="M73.3694 38.1327L84.2889 9.15691H89.7692L100.607 38.1327H95.3721L92.8364 31.2625H81.0172L78.5838 38.1327H73.3694ZM82.3259 27.1809H91.5073L87.4994 15.6835C87.3903 15.3872 87.2949 15.1245 87.2131 14.8955C87.1449 14.653 87.0631 14.3567 86.9677 14.0064H86.8655C86.7564 14.3297 86.6678 14.6126 86.5996 14.8551C86.5315 15.0975 86.4429 15.3737 86.3338 15.6835L82.3259 27.1809Z" fill="url(#paint0_linear_2023_437)"/>
<path d="M118.254 20.1289L107.294 34.3743H118.602V38.1327H101.343V35.3644L112.263 21.1998H102.1V17.4415H118.254V20.1289Z" fill="url(#paint1_linear_2023_437)"/>
<path d="M140.42 38.1327H135.656V35.324H135.574C134.892 36.3343 133.972 37.1358 132.813 37.7285C131.668 38.3213 130.462 38.6176 129.194 38.6176C126.74 38.6176 124.886 37.9037 123.632 36.4758C122.378 35.0344 121.751 32.9329 121.751 30.1714V17.4415H126.474V29.545C126.474 31.2962 126.815 32.6096 127.497 33.4852C128.178 34.3608 129.242 34.7986 130.687 34.7986C132.145 34.7986 133.338 34.2733 134.265 33.2225C135.192 32.1718 135.656 30.8449 135.656 29.2419V17.4415H140.42V38.1327Z" fill="url(#paint2_linear_2023_437)"/>
<path d="M158.129 21.6646C157.747 21.5164 157.352 21.4019 156.943 21.3211C156.547 21.2268 156.125 21.1796 155.675 21.1796C154.271 21.1796 153.133 21.7993 152.26 23.0386C151.388 24.2779 150.951 25.8944 150.951 27.8881V38.1327H146.187V17.4415H150.951V21.1796H151.033C151.524 19.8595 152.246 18.8492 153.201 18.1487C154.155 17.4347 155.259 17.0778 156.513 17.0778C157.045 17.0778 157.536 17.1182 157.986 17.199C158.436 17.2798 158.919 17.4347 159.437 17.6637L158.129 21.6646Z" fill="url(#paint3_linear_2023_437)"/>
<path d="M180.295 28.9388H165.838C165.879 30.9325 166.424 32.4345 167.474 33.4448C168.537 34.4417 169.839 34.9401 171.379 34.9401C172.47 34.9401 173.438 34.6909 174.283 34.1924C175.128 33.6806 175.844 32.9262 176.43 31.9293L180.091 33.8894C179.136 35.3981 177.916 36.5633 176.43 37.385C174.958 38.2067 173.22 38.6176 171.216 38.6176C168.135 38.6176 165.668 37.7016 163.814 35.8696C161.959 34.0375 161.032 31.404 161.032 27.9689C161.032 24.6955 161.98 22.0418 163.875 20.0077C165.783 17.9736 168.169 16.9565 171.032 16.9565C173.976 16.9565 176.253 17.8254 177.862 19.5631C179.484 21.3009 180.295 23.8199 180.295 27.1203V28.9388ZM175.694 25.5846C175.694 23.9681 175.285 22.7153 174.467 21.8262C173.649 20.9372 172.531 20.4926 171.114 20.4926C169.628 20.4926 168.421 20.9843 167.494 21.9677C166.567 22.9376 166.008 24.1432 165.817 25.5846H175.694Z" fill="url(#paint4_linear_2023_437)"/>
<path d="M213.34 13.2386H205.14V38.1327H200.273V13.2386H192.094V9.15691H213.34V13.2386Z" fill="url(#paint5_linear_2023_437)"/>
<path d="M235.752 38.1327H231.008V26.0089C231.008 24.2712 230.66 22.9645 229.965 22.0889C229.283 21.2133 228.261 20.7755 226.897 20.7755C225.411 20.7755 224.205 21.3009 223.278 22.3516C222.365 23.4023 221.908 24.7359 221.908 26.3524V38.1327H217.143V7.5H221.908V20.2299H221.99C222.726 19.1927 223.68 18.3912 224.853 17.8254C226.025 17.2461 227.293 16.9565 228.656 16.9565C230.905 16.9565 232.65 17.6705 233.891 19.0984C235.131 20.5128 235.752 22.6075 235.752 25.3825V38.1327Z" fill="url(#paint6_linear_2023_437)"/>
<path d="M259.022 28.9388H244.565C244.606 30.9325 245.151 32.4345 246.201 33.4448C247.264 34.4417 248.566 34.9401 250.107 34.9401C251.197 34.9401 252.165 34.6909 253.01 34.1924C253.855 33.6806 254.571 32.9262 255.157 31.9293L258.818 33.8894C257.863 35.3981 256.643 36.5633 255.157 37.385C253.685 38.2067 251.947 38.6176 249.943 38.6176C246.862 38.6176 244.395 37.7016 242.541 35.8696C240.687 34.0375 239.76 31.404 239.76 27.9689C239.76 24.6955 240.707 22.0418 242.602 20.0077C244.51 17.9736 246.896 16.9565 249.759 16.9565C252.704 16.9565 254.98 17.8254 256.589 19.5631C258.211 21.3009 259.022 23.8199 259.022 27.1203V28.9388ZM254.421 25.5846C254.421 23.9681 254.012 22.7153 253.194 21.8262C252.376 20.9372 251.258 20.4926 249.841 20.4926C248.355 20.4926 247.148 20.9843 246.221 21.9677C245.294 22.9376 244.735 24.1432 244.545 25.5846H254.421Z" fill="url(#paint7_linear_2023_437)"/>
<path d="M294.684 38.1327H289.94V26.211C289.94 24.3385 289.613 22.9645 288.959 22.0889C288.318 21.2133 287.282 20.7755 285.851 20.7755C284.583 20.7755 283.52 21.3278 282.661 22.4324C281.816 23.5235 281.393 24.8572 281.393 26.4332V38.1327H276.649V26.0089C276.649 24.2712 276.308 22.9645 275.626 22.0889C274.945 21.2133 273.916 20.7755 272.539 20.7755C271.23 20.7755 270.167 21.3009 269.349 22.3516C268.531 23.3888 268.122 24.7629 268.122 26.4737V38.1327H263.357V17.4415H268.122V20.2299H268.204C268.912 19.1927 269.833 18.3912 270.964 17.8254C272.109 17.2461 273.363 16.9565 274.727 16.9565C276.172 16.9565 277.412 17.2933 278.448 17.9668C279.484 18.6269 280.221 19.5025 280.657 20.5936C281.502 19.3678 282.518 18.4585 283.704 17.8658C284.903 17.2596 286.273 16.9565 287.814 16.9565C289.995 16.9565 291.685 17.657 292.885 19.058C294.085 20.4589 294.684 22.5469 294.684 25.3219V38.1327Z" fill="url(#paint8_linear_2023_437)"/>
<path d="M317.996 28.9388H303.539C303.58 30.9325 304.125 32.4345 305.175 33.4448C306.238 34.4417 307.54 34.9401 309.08 34.9401C310.171 34.9401 311.139 34.6909 311.984 34.1924C312.829 33.6806 313.545 32.9262 314.131 31.9293L317.791 33.8894C316.837 35.3981 315.617 36.5633 314.131 37.385C312.659 38.2067 310.921 38.6176 308.917 38.6176C305.836 38.6176 303.368 37.7016 301.514 35.8696C299.66 34.0375 298.733 31.404 298.733 27.9689C298.733 24.6955 299.681 22.0418 301.576 20.0077C303.484 17.9736 305.87 16.9565 308.733 16.9565C311.677 16.9565 313.954 17.8254 315.562 19.5631C317.185 21.3009 317.996 23.8199 317.996 27.1203V28.9388ZM313.395 25.5846C313.395 23.9681 312.986 22.7153 312.168 21.8262C311.35 20.9372 310.232 20.4926 308.814 20.4926C307.329 20.4926 306.122 20.9843 305.195 21.9677C304.268 22.9376 303.709 24.1432 303.518 25.5846H313.395Z" fill="url(#paint9_linear_2023_437)"/>
<path d="M92.2843 57.1614H81.3239V65.8096H91.4255V69.9115H81.3239V82.015H76.4571V53.0393H92.2843V57.1614Z" fill="black"/>
<path d="M96.5785 82.015V51.3824H101.343V82.015H96.5785Z" fill="black"/>
<path d="M125.411 82.015H120.647V79.2064H120.565C119.883 80.2167 118.963 81.0182 117.804 81.6109C116.659 82.2036 115.453 82.5 114.185 82.5C111.731 82.5 109.877 81.786 108.623 80.3581C107.369 78.9167 106.741 76.8153 106.741 74.0538V61.3239H111.465V73.4274C111.465 75.1786 111.806 76.492 112.488 77.3676C113.169 78.2432 114.232 78.681 115.678 78.681C117.136 78.681 118.329 78.1557 119.256 77.1049C120.183 76.0542 120.647 74.7273 120.647 73.1243V61.3239H125.411V82.015Z" fill="black"/>
<path d="M149.091 72.8212H134.633C134.674 74.8149 135.22 76.3169 136.269 77.3272C137.333 78.324 138.634 78.8225 140.175 78.8225C141.266 78.8225 142.233 78.5732 143.079 78.0748C143.924 77.5629 144.64 76.8086 145.226 75.8117L148.886 77.7717C147.932 79.2805 146.712 80.4457 145.226 81.2674C143.753 82.0891 142.015 82.5 140.011 82.5C136.93 82.5 134.463 81.584 132.609 79.7519C130.755 77.9199 129.828 75.2864 129.828 71.8513C129.828 68.5779 130.775 65.9241 132.67 63.89C134.579 61.8559 136.965 60.8389 139.827 60.8389C142.772 60.8389 145.049 61.7078 146.657 63.4455C148.279 65.1832 149.091 67.7023 149.091 71.0026V72.8212ZM144.49 69.467C144.49 67.8505 144.081 66.5977 143.263 65.7086C142.445 64.8195 141.327 64.375 139.909 64.375C138.423 64.375 137.217 64.8667 136.29 65.8501C135.363 66.82 134.804 68.0256 134.613 69.467H144.49Z" fill="black"/>
<path d="M172.095 82.015H167.351V69.9115C167.351 68.2007 167.003 66.9008 166.308 66.0117C165.613 65.1092 164.584 64.6579 163.22 64.6579C161.735 64.6579 160.521 65.1832 159.581 66.234C158.654 67.2847 158.19 68.6116 158.19 70.2146V82.015H153.426V61.3239H158.19V64.1325H158.272C159.008 63.0818 159.962 62.2735 161.135 61.7078C162.321 61.1285 163.602 60.8389 164.979 60.8389C167.297 60.8389 169.062 61.5663 170.275 63.0212C171.489 64.476 172.095 66.5573 172.095 69.2649V82.015Z" fill="black"/>
<path d="M189.783 80.6208C189.156 81.2135 188.427 81.6715 187.595 81.9948C186.764 82.3181 185.83 82.4798 184.794 82.4798C182.803 82.4798 181.297 81.9881 180.275 81.0047C179.266 80.0079 178.761 78.553 178.761 76.6402V65.0014H175.244V61.3239H178.761V56.2521L183.505 55.4236V61.3239H188.843V65.0014H183.505V76.4785C183.505 77.3003 183.669 77.9064 183.996 78.2971C184.337 78.6878 184.848 78.8831 185.53 78.8831C185.884 78.8831 186.232 78.8157 186.573 78.681C186.914 78.5463 187.275 78.2836 187.657 77.893L189.783 80.6208Z" fill="black"/>
<path d="M202.932 82.015V80.2369C202.932 78.8898 203.123 77.6909 203.504 76.6402C203.886 75.5895 204.418 74.6196 205.099 73.7305C205.794 72.8414 206.626 72.0062 207.594 71.2249C208.562 70.4301 209.632 69.6084 210.804 68.7598C211.772 68.0727 212.597 67.4194 213.279 66.7997C213.974 66.1666 214.54 65.5402 214.976 64.9206C215.412 64.3009 215.739 63.661 215.957 63.001C216.176 62.3409 216.285 61.6472 216.285 60.9197C216.285 59.4649 215.876 58.3603 215.058 57.6059C214.24 56.8515 213.19 56.4744 211.909 56.4744C210.573 56.4744 209.448 56.8448 208.535 57.5857C207.635 58.3131 206.865 59.3571 206.224 60.7177L202.339 59.0608C203.334 56.9862 204.656 55.3832 206.306 54.2517C207.969 53.1201 209.98 52.5543 212.338 52.5543C214.874 52.5543 216.959 53.275 218.595 54.7164C220.245 56.1443 221.07 58.1717 221.07 60.7985C221.07 61.8627 220.899 62.8865 220.558 63.8698C220.231 64.8397 219.768 65.7423 219.168 66.5775C218.554 67.4261 217.846 68.2344 217.041 69.0022C216.237 69.7566 215.303 70.511 214.24 71.2653C213.231 72.0062 212.345 72.6528 211.581 73.2051C210.818 73.7574 210.198 74.2895 209.721 74.8014C209.23 75.3403 208.882 75.8589 208.678 76.3573C208.473 76.8557 208.371 77.4013 208.371 77.994H221.683V82.015H202.932Z" fill="black"/>
<path d="M25.6707 0.539314L2.13215 13.55C0.813683 14.2788 0 15.6351 0 17.104V73.752C0 75.2209 0.813686 76.5771 2.13215 77.3058L24.6045 89.7273C26.015 90.5069 27.7701 89.5219 27.7701 87.9503V60.7777L52.3255 47.2051C53.7467 46.4193 53.7467 44.4368 52.3255 43.651L27.7701 30.0784L52.3255 16.5055C53.7467 15.7199 53.7467 13.7373 52.3255 12.9516L29.8695 0.539314C28.5687 -0.179771 26.9715 -0.179771 25.6707 0.539314Z" fill="black"/>
<defs>
<linearGradient id="paint0_linear_2023_437" x1="74.0019" y1="17.5781" x2="313.046" y2="37.7373" gradientUnits="userSpaceOnUse">
<stop stop-color="#2D9EFF" stop-opacity="0.8"/>
<stop offset="1" stop-color="#0078E9"/>
</linearGradient>
<linearGradient id="paint1_linear_2023_437" x1="74.0019" y1="17.5781" x2="313.046" y2="37.7373" gradientUnits="userSpaceOnUse">
<stop stop-color="#2D9EFF" stop-opacity="0.8"/>
<stop offset="1" stop-color="#0078E9"/>
</linearGradient>
<linearGradient id="paint2_linear_2023_437" x1="74.0019" y1="17.5781" x2="313.046" y2="37.7373" gradientUnits="userSpaceOnUse">
<stop stop-color="#2D9EFF" stop-opacity="0.8"/>
<stop offset="1" stop-color="#0078E9"/>
</linearGradient>
<linearGradient id="paint3_linear_2023_437" x1="74.0019" y1="17.5781" x2="313.046" y2="37.7373" gradientUnits="userSpaceOnUse">
<stop stop-color="#2D9EFF" stop-opacity="0.8"/>
<stop offset="1" stop-color="#0078E9"/>
</linearGradient>
<linearGradient id="paint4_linear_2023_437" x1="74.0019" y1="17.5781" x2="313.046" y2="37.7373" gradientUnits="userSpaceOnUse">
<stop stop-color="#2D9EFF" stop-opacity="0.8"/>
<stop offset="1" stop-color="#0078E9"/>
</linearGradient>
<linearGradient id="paint5_linear_2023_437" x1="74.0019" y1="17.5781" x2="313.046" y2="37.7373" gradientUnits="userSpaceOnUse">
<stop stop-color="#2D9EFF" stop-opacity="0.8"/>
<stop offset="1" stop-color="#0078E9"/>
</linearGradient>
<linearGradient id="paint6_linear_2023_437" x1="74.0019" y1="17.5781" x2="313.046" y2="37.7373" gradientUnits="userSpaceOnUse">
<stop stop-color="#2D9EFF" stop-opacity="0.8"/>
<stop offset="1" stop-color="#0078E9"/>
</linearGradient>
<linearGradient id="paint7_linear_2023_437" x1="74.0019" y1="17.5781" x2="313.046" y2="37.7373" gradientUnits="userSpaceOnUse">
<stop stop-color="#2D9EFF" stop-opacity="0.8"/>
<stop offset="1" stop-color="#0078E9"/>
</linearGradient>
<linearGradient id="paint8_linear_2023_437" x1="74.0019" y1="17.5781" x2="313.046" y2="37.7373" gradientUnits="userSpaceOnUse">
<stop stop-color="#2D9EFF" stop-opacity="0.8"/>
<stop offset="1" stop-color="#0078E9"/>
</linearGradient>
<linearGradient id="paint9_linear_2023_437" x1="74.0019" y1="17.5781" x2="313.046" y2="37.7373" gradientUnits="userSpaceOnUse">
<stop stop-color="#2D9EFF" stop-opacity="0.8"/>
<stop offset="1" stop-color="#0078E9"/>
</linearGradient>
</defs>
</svg>
