<svg width="62" height="77" viewBox="0 0 62 77" fill="none" xmlns="http://www.w3.org/2000/svg">
<path d="M25.4062 63C25.6771 61.6875 25.8125 60.6458 25.8125 59.875C25.8125 59.0833 25.7917 58.4896 25.75 58.0938C25.7292 57.6979 25.6875 57.2812 25.625 56.8438C25.5833 56.3854 25.5208 55.8854 25.4375 55.3438C25.375 54.7812 25.3125 54.1354 25.25 53.4062C24.7708 48.4271 23.0729 44.3333 20.1562 41.125C18.8646 39.7083 17.4688 38.6354 15.9688 37.9062C14.4688 37.1562 13.2292 36.7812 12.25 36.7812C11.2917 36.7812 10.5521 36.8438 10.0312 36.9688C8.86458 40.4688 8.28125 44.125 8.28125 47.9375C8.28125 51.3125 8.45833 53.8333 8.8125 55.5C9.375 58 10.2396 60.5104 11.4062 63.0312H2.0625C2.5625 61.7812 2.8125 59.1562 2.8125 55.1562C2.8125 51.1354 3.11458 47.3854 3.71875 43.9062C4.32292 40.4062 5.10417 37.2917 6.0625 34.5625C7.04167 31.8333 8.125 29.4479 9.3125 27.4062C10.5208 25.3438 11.7188 23.5521 12.9062 22.0312C14.1146 20.4896 15.25 19.1771 16.3125 18.0938C17.375 16.9896 18.2604 16.0208 18.9688 15.1875H28.8125C27.9167 16.2083 27.4688 17.6354 27.4688 19.4688C27.4688 20.3021 27.6042 21.6667 27.875 23.5625L28.6562 29.25C31.5104 48.9167 34.0625 60.1667 36.3125 63H25.4062ZM11.3125 33.6562C12.125 33.3438 12.9792 33.1875 13.875 33.1875C14.7708 33.1875 15.5729 33.25 16.2812 33.375C17.0104 33.5 17.7292 33.7083 18.4375 34C19.9583 34.5833 21.2292 35.5104 22.25 36.7812C21.2292 31.4271 20.6042 28.1562 20.375 26.9688L19.2812 21.5L17.5 23.625C15 26.625 12.9375 29.9688 11.3125 33.6562Z" fill="#6B705C"/>
<path d="M46.4922 47.8104C49.4922 47.8104 51.4297 44.1541 52.3047 36.8416C52.6016 34.3729 52.75 31.4666 52.75 28.1229C52.75 19.8416 50.6484 15.701 46.4453 15.701C42.2422 15.701 40.1406 19.8416 40.1406 28.1229C40.1406 37.8885 41.3984 44.0526 43.9141 46.6151C44.6953 47.4119 45.5547 47.8104 46.4922 47.8104ZM46.4453 50.1541C42.2891 50.1541 39.1562 48.201 37.0469 44.2947C35.0156 40.5291 34 35.1385 34 28.1229C34 20.826 36.2422 16.2322 40.7266 14.3416C42.3047 13.6854 44.2109 13.3572 46.4453 13.3572C52.8516 13.3572 56.7656 16.201 58.1875 21.8885C58.6562 23.7166 58.8906 26.0682 58.8906 28.9432C58.8906 31.8182 58.6406 34.6229 58.1406 37.3572C57.6406 40.076 56.875 42.3885 55.8438 44.2947C53.7344 48.201 50.6016 50.1541 46.4453 50.1541Z" fill="#6B705C"/>
<path d="M37.0625 52.7372C38.7812 53.1904 41.8906 53.4169 46.3906 53.4169C50.8906 53.4169 54.0469 53.1904 55.8594 52.7372V57.8935C54.0469 57.4404 50.9844 57.2138 46.6719 57.2138H45.5938C41.4062 57.2138 38.5625 57.4404 37.0625 57.8935V52.7372Z" fill="#C14725"/>
</svg>
